<?xml version="1.0" encoding="UTF-8" standalone="no"?>
<!-- Created with Inkscape (http://www.inkscape.org/) -->

<svg
   xmlns:dc="http://purl.org/dc/elements/1.1/"
   xmlns:cc="http://creativecommons.org/ns#"
   xmlns:rdf="http://www.w3.org/1999/02/22-rdf-syntax-ns#"
   xmlns:svg="http://www.w3.org/2000/svg"
   xmlns="http://www.w3.org/2000/svg"
   xmlns:sodipodi="http://sodipodi.sourceforge.net/DTD/sodipodi-0.dtd"
   xmlns:inkscape="http://www.inkscape.org/namespaces/inkscape"
   width="256"
   height="256"
   viewBox="0 0 67.733332 67.733335"
   version="1.1"
   id="svg8"
   inkscape:version="0.92.2 (5c3e80d, 2017-08-06)"
   sodipodi:docname="logo.svg"
   inkscape:export-filename="D:\workspace\bugs-slackbot\logo.png"
   inkscape:export-xdpi="96"
   inkscape:export-ydpi="96">
  <defs
     id="defs2" />
  <sodipodi:namedview
     id="base"
     pagecolor="#ffffff"
     bordercolor="#666666"
     borderopacity="1.0"
     inkscape:pageopacity="0.0"
     inkscape:pageshadow="2"
     inkscape:zoom="1.979899"
     inkscape:cx="106.72845"
     inkscape:cy="92.012299"
     inkscape:document-units="px"
     inkscape:current-layer="layer1"
     showgrid="false"
     units="px"
     inkscape:window-width="1920"
     inkscape:window-height="1017"
     inkscape:window-x="-8"
     inkscape:window-y="-8"
     inkscape:window-maximized="1" />
  <metadata
     id="metadata5">
    <rdf:RDF>
      <cc:Work
         rdf:about="">
        <dc:format>image/svg+xml</dc:format>
        <dc:type
           rdf:resource="http://purl.org/dc/dcmitype/StillImage" />
        <dc:title></dc:title>
      </cc:Work>
    </rdf:RDF>
  </metadata>
  <g
     inkscape:label="Layer 1"
     inkscape:groupmode="layer"
     id="layer1"
     transform="translate(0,-229.26665)">
    <rect
       style="fill:#fef200;fill-opacity:1;stroke:#000000;stroke-width:0.05683392;stroke-miterlimit:4;stroke-dasharray:none;stroke-opacity:1"
       id="rect815"
       width="67.676498"
       height="67.676498"
       x="0.028416963"
       y="229.29507" />
    <path
       style="fill:#000000;stroke-width:0.16370258"
       d="m 34.170295,288.31101 c -0.02392,-0.29571 0.182948,-0.70082 0.709311,-1.38904 1.839749,-2.40546 1.910751,-5.6223 0.192345,-8.71435 l -0.430288,-0.77425 -1.590508,0.31958 c -1.940457,0.38989 -4.515285,0.3477 -6.228006,-0.10206 -4.047113,-1.06278 -6.406186,-3.42186 -7.468964,-7.46897 -0.449761,-1.71272 -0.491958,-4.28755 -0.102063,-6.228 l 0.31958,-1.59051 -0.77425,-0.43029 c -3.088683,-1.71653 -6.339812,-1.64632 -8.700806,0.1879 -1.0869434,0.84443 -1.3926688,0.91876 -1.8593874,0.45204 -0.480793,-0.48079 -0.211016,-1.00459 0.957601,-1.85928 2.9559964,-2.16193 6.4623124,-2.28536 10.1531734,-0.35744 0.482634,0.25211 0.909131,0.37946 0.947771,0.283 0.188864,-0.47146 1.174405,-2.22968 1.647417,-2.93903 l 0.532552,-0.79863 -2.48053,-2.48053 c -2.326189,-2.32619 -2.48053,-2.50934 -2.48053,-2.94355 1e-6,-0.54783 0.164572,-0.74447 0.691827,-0.82662 0.36058,-0.0562 0.572765,0.11824 2.922384,2.40235 l 2.533574,2.46294 0.96307,-0.96307 c 0.529689,-0.52969 1.154125,-1.09044 1.387636,-1.24611 0.405301,-0.2702 0.407821,-0.31211 0.05554,-0.92371 -1.079502,-1.87413 -1.177978,-4.35746 -0.262542,-6.62067 0.551147,-1.36259 1.599417,-2.98704 3.007281,-4.66022 1.161355,-1.38022 1.390322,-1.5948 1.79077,-1.67821 0.512128,-0.10667 0.844386,0.13613 0.928609,0.67861 0.04583,0.29522 -0.187424,0.64074 -1.282902,1.90037 -2.806273,3.22677 -3.854442,5.96751 -3.202408,8.37361 0.326285,1.20404 0.603746,1.47688 1.235713,1.21511 0.829812,-0.34372 1.669748,-0.17764 2.3027,0.45531 l 0.551929,0.55193 0.436603,-0.89458 c 0.300458,-0.61563 0.749085,-1.20947 1.438703,-1.90438 0.898353,-0.90525 1.118247,-1.04931 2.123971,-1.39147 1.39012,-0.47294 2.928825,-0.41667 4.59752,0.16814 1.14969,0.40291 1.283429,0.40746 2.09559,0.0713 1.259248,-0.52127 2.271219,-0.56 3.521135,-0.13476 0.923399,0.31416 1.232909,0.5075 1.93281,1.2074 1.501478,1.50148 1.89033,3.47863 1.072646,5.45395 -0.336194,0.81216 -0.331646,0.9459 0.07127,2.09559 0.585685,1.6712 0.641185,3.20708 0.166329,4.60283 -0.347974,1.02281 -0.48187,1.22517 -1.445947,2.18526 -0.863016,0.85945 -1.250233,1.1371 -2.062756,1.47913 l -1.000294,0.42106 0.569129,0.67206 c 0.442216,0.52219 0.57234,0.82199 0.583529,1.3444 0.0079,0.36979 -0.05052,0.79765 -0.129875,0.95079 -0.179173,0.34579 0.24905,0.64001 1.474767,1.01328 2.332145,0.71022 5.179017,-0.3665 8.418786,-3.18408 1.259627,-1.09548 1.605152,-1.32874 1.900366,-1.2829 0.54155,0.0841 0.785335,0.41624 0.679258,0.92551 -0.191557,0.91965 -4.244341,3.9967 -6.332386,4.80784 -2.334226,0.90676 -4.757579,0.80776 -6.630192,-0.27086 l -0.643493,-0.37066 -0.527199,0.67117 c -0.289961,0.36914 -0.852308,0.99718 -1.249663,1.39565 l -0.722464,0.72447 2.430859,2.43086 c 2.27652,2.27652 2.43086,2.46026 2.43086,2.89388 0,0.54783 -0.164574,0.74447 -0.691832,0.82662 -0.361091,0.0563 -0.573087,-0.11869 -2.973177,-2.45349 l -2.584362,-2.51406 -0.788111,0.53065 c -0.697241,0.46947 -2.45226,1.45077 -2.933688,1.64034 -0.09693,0.0382 0.03004,0.46427 0.282142,0.94691 1.503894,2.87909 1.769376,6.03327 0.704587,8.37117 -0.546145,1.19914 -1.616798,2.64062 -2.133727,2.87275 -0.516295,0.23185 -1.005041,-0.0429 -1.049296,-0.58995 z m -7.071051,-19.56273 c 3.338894,-3.3389 4.562584,-4.49131 4.769114,-4.49131 0.152797,0 0.413246,0.13544 0.578776,0.30097 0.16553,0.16553 0.300964,0.42598 0.300964,0.57877 0,0.20656 -1.155271,1.43309 -4.504184,4.782 l -4.504185,4.50418 0.51459,0.35358 c 0.930238,0.63916 2.784432,1.29706 4.223818,1.49867 2.742124,0.38407 6.004337,-0.28628 8.594797,-1.76615 1.678505,-0.95889 3.698856,-2.68524 5.13974,-4.39181 1.348489,-1.59714 1.58381,-2.08172 1.197725,-2.46639 -0.141239,-0.14078 -1.194123,-0.88476 -2.339683,-1.65336 -4.982748,-3.34309 -7.29112,-5.70431 -10.090051,-10.32108 -0.778459,-1.28405 -1.494213,-2.41347 -1.590566,-2.50982 -0.31615,-0.31615 -1.340092,0.44571 -3.51769,2.61733 -1.56332,1.55903 -2.267939,2.36362 -2.810279,3.20899 -1.626624,2.53551 -2.440829,5.17916 -2.425814,7.8764 0.01091,1.95921 0.303161,3.30895 1.058313,4.88769 0.860971,1.79998 0.263201,2.13275 5.404615,-3.00866 z m 12.587433,-5.84726 c 2.499401,1.74272 4.102252,1.7933 5.96977,0.1884 1.581729,-1.3593 1.914085,-2.98954 1.079797,-5.2965 -1.154117,-3.19136 -4.332729,-6.36998 -7.524088,-7.52409 -2.306968,-0.83429 -3.937208,-0.50193 -5.296507,1.07979 -1.588487,1.84842 -1.550137,3.47266 0.139596,5.91238 0.904038,1.30528 4.317237,4.72369 5.631434,5.64002 z m 7.344827,-8.99335 c 0.04396,-0.14704 0.06905,-0.50044 0.05575,-0.78533 -0.08192,-1.75575 -1.448778,-3.1226 -3.204525,-3.20452 -1.232996,-0.0575 -1.222064,-0.0337 1.008088,2.19643 1.79627,1.79627 2.071022,2.02645 2.140685,1.79342 z"
       id="path4517"
       inkscape:connector-curvature="0" />
  </g>
</svg>
